<?xml version="1.0" encoding="utf-8"?>
<!-- Generator: Adobe Illustrator 21.1.0, SVG Export Plug-In . SVG Version: 6.00 Build 0)  -->
<svg version="1.1" id="Layer_1" xmlns="http://www.w3.org/2000/svg" xmlns:xlink="http://www.w3.org/1999/xlink" x="0px" y="0px"
	 viewBox="0 0 195.4 39.5" style="enable-background:new 0 0 195.4 39.5;" xml:space="preserve">
<style type="text/css">
	.st0{fill:#FFFFFF;}
</style>
<path class="st0" d="M32.3,37.4c-0.1-0.1-0.3-0.2-0.4-0.3c-0.2-0.3-0.2-0.3-0.4,0c0,0,0,0.1-0.1,0.1c0,0-0.1,0-0.1-0.1
	c0.1-0.1,0.2-0.3,0.4-0.3c0.1,0,0.3,0.1,0.4,0.2C32.2,37.1,32.3,37.3,32.3,37.4C32.4,37.4,32.4,37.4,32.3,37.4z"/>
<path class="st0" d="M32.7,37.1c-0.2-0.2-0.4-0.5-0.5-0.7c0,0,0.1-0.1,0.1-0.1c0.2,0.2,0.3,0.5,0.5,0.7
	C32.8,37.1,32.7,37.1,32.7,37.1z"/>
<g>
	<path class="st0" d="M29.7,32c-0.2,0-0.3,0.1-0.4,0.1c-1.2,0-2.4,0-3.6,0c-0.3,0-0.5-0.1-0.7-0.3c-0.7-0.8-1.3-1.6-2-2.4
		c-0.6-0.8-1.3-1.6-1.9-2.4c-0.5-0.6-1.1-1.3-1.6-1.9c-0.8-1-1.6-2-2.4-3c-0.6-0.8-1.3-1.5-1.9-2.3c-0.7-0.9-1.5-1.8-2.2-2.7
		c-0.9-1.1-1.8-2.1-2.7-3.2c-0.8-1-1.6-2-2.4-3c-0.6-0.7-1.3-1.5-1.9-2.2C5.2,7.8,4.5,6.9,3.7,6c-1-1.2-2-2.4-3-3.5
		C0.5,2.2,0.3,1.9,0,1.5c0.2,0,0.3,0,0.4,0c6.7,0,13.5,0,20.2,0c0.3,0,0.5,0,0.7,0.4c0.3,0.5,0.7,0.8,1,1.3c0.5,0.6,1,1.2,1.5,1.8
		c0.5,0.6,1,1.2,1.5,1.8c0.1,0.2,0.2,0.2,0.3,0c0.6-0.7,1.2-1.5,1.8-2.2c0.5-0.6,1-1.2,1.4-1.7c0.3-0.4,0.7-0.8,1-1.2
		c0.1-0.1,0.2-0.1,0.3-0.1c4.1,0,8.2,0,12.3,0c0,0,0,0,0,0c-4.3,5.2-8.7,10.4-13,15.7c-0.4-0.4-0.7-0.9-1.1-1.3
		c-0.3-0.4-0.7-0.8-1-1.2c0-0.1-0.1-0.2,0-0.3c0.7-0.9,1.5-1.7,2.2-2.6c0.6-0.7,1.2-1.5,1.8-2.2c0.6-0.7,1.2-1.5,1.8-2.2
		c0.7-0.8,1.4-1.6,2.1-2.5c-0.1,0-0.2,0-0.3,0c-1.1,0-2.1,0-3.2,0c-0.1,0-0.3,0.1-0.4,0.2c-0.8,1-1.7,2-2.5,2.9
		c-0.7,0.8-1.3,1.6-2,2.4c-0.5,0.6-1,1.2-1.5,1.8c-0.2,0.2-0.3,0-0.4-0.1c-0.4-0.5-0.9-1.1-1.3-1.6c-0.9-1.2-1.9-2.3-2.8-3.5
		c-0.5-0.6-1-1.2-1.5-1.9C19.5,5,19.3,4.9,19,4.9c-3.8,0-7.5,0-11.3,0c-0.1,0-0.2,0-0.4,0C14.7,14,22.2,23,29.7,32z"/>
	<path class="st0" d="M17.2,32.3c-0.5,0.7-1.1,1.3-1.6,1.9c-0.6,0.7-1.1,1.4-1.7,2c-0.4,0.5-0.8,0.9-1.2,1.4
		c-0.1,0.1-0.2,0.2-0.3,0.2c-4,0-8,0-12.1,0c-0.1,0-0.2,0-0.3,0C4.4,32.5,8.7,27.2,13.1,22c0.2,0.2,0.4,0.4,0.6,0.7
		c0.3,0.4,0.7,0.8,1,1.2c0.2,0.2,0.3,0.4,0.5,0.6c0.1,0.1,0.1,0.3,0,0.4c-0.6,0.7-1.2,1.4-1.8,2.1c-0.6,0.7-1.2,1.5-1.8,2.2
		c-0.8,0.9-1.6,1.8-2.3,2.8c-0.5,0.6-0.9,1.2-1.4,1.8c-0.2,0.2-0.4,0.5-0.7,0.8c1.2,0,2.3,0,3.4,0c0.3,0,0.4-0.1,0.5-0.3
		c0.7-0.8,1.3-1.6,2-2.5c0.8-0.9,1.5-1.8,2.3-2.7c0.6-0.7,1.1-1.4,1.7-2.1c0.2,0.2,0.3,0.3,0.4,0.4c0.6,0.7,1.1,1.4,1.6,2.1
		c0.8,1,1.6,2.1,2.4,3.1c0.5,0.6,1,1.2,1.4,1.8c0.1,0.2,0.3,0.2,0.5,0.2c3.6,0,7.1,0,10.7,0c0.1,0,0.3,0,0.4,0
		c-0.1,0.1-0.2,0.2-0.2,0.2c0,0,0,0,0,0c0.1,0,0.2-0.1,0.3-0.2c0.1,0.3,0.1,0.6,0.2,1c0.2-0.1,0.3-0.2,0.5-0.3c0,0,0,0,0-0.1
		c-0.1,0.1-0.2,0.1-0.4,0.2c0-0.3-0.1-0.6-0.1-0.9c0.1,0,0.2,0,0.4-0.1c-7.4-9-14.9-18-22.3-26.9c0,0,0-0.1,0.1-0.1
		c0.3,0,0.5,0,0.8,0c1,0,2.1,0,3.1,0c0.3,0,0.5,0.1,0.6,0.3c0.6,0.8,1.3,1.5,1.9,2.3c0.7,0.8,1.4,1.7,2.1,2.5c0.7,0.8,1.3,1.6,2,2.4
		c0.7,0.9,1.4,1.7,2.1,2.6c0.5,0.6,1,1.2,1.5,1.8c0.6,0.8,1.3,1.5,1.9,2.3c1,1.2,2,2.5,3,3.7c1,1.2,2,2.3,2.9,3.5
		c0.8,0.9,1.5,1.8,2.2,2.8c0.8,1,1.7,2.1,2.5,3.1c0.8,1,1.7,2,2.5,3c0,0,0.1,0.1,0.2,0.1c-0.2,0-0.3,0-0.3,0c-6.8,0-13.7,0-20.5,0
		c-0.1,0-0.3-0.1-0.4-0.2c-0.9-1.1-1.8-2.3-2.7-3.4C18.2,33.6,17.7,33,17.2,32.3z M33.6,36.5c-0.3,0.1-0.4-0.1-0.5-0.3
		c-0.1-0.2-0.3-0.3-0.4-0.5c0,0-0.1,0-0.1,0.1c0.2,0.3,0.5,0.7,0.7,1c-0.1-0.1-0.1-0.1-0.2-0.2C33.2,36.5,33.4,36.5,33.6,36.5
		c0.1-0.1,0.2-0.2,0.2-0.2c-0.1-0.2-0.2-0.4-0.4-0.6c0,0-0.2,0-0.3,0.1c0.2,0.1,0.3,0.1,0.4,0.2C33.6,36.1,33.5,36.3,33.6,36.5z
		 M32.3,37.4C32.4,37.4,32.4,37.4,32.3,37.4c0-0.2-0.1-0.3-0.2-0.4c-0.1-0.1-0.3-0.2-0.4-0.2c-0.1,0-0.3,0.2-0.4,0.3
		c0,0,0.1,0,0.1,0.1c0,0,0-0.1,0.1-0.1c0.2-0.3,0.2-0.3,0.4,0C32,37.3,32.2,37.3,32.3,37.4z M33.6,35.3c0.1,0.2,0.2,0.4,0.4,0.5
		c0.2,0.2,0.3,0.2,0.5,0C33.9,36,34,35.4,33.6,35.3z M32.7,37.1c0,0,0.1,0,0.1-0.1c-0.2-0.2-0.3-0.5-0.5-0.7c0,0-0.1,0.1-0.1,0.1
		C32.3,36.7,32.5,36.9,32.7,37.1z"/>
	<path class="st0" d="M33.5,36.5c-0.1,0-0.3,0.1-0.4,0.1c0.1,0.1,0.1,0.1,0.2,0.2c-0.2-0.3-0.5-0.7-0.7-1c0,0,0.1,0,0.1-0.1
		c0.1,0.2,0.3,0.3,0.4,0.5C33.1,36.4,33.3,36.5,33.5,36.5L33.5,36.5z"/>
	<path class="st0" d="M33.6,36.5c0-0.2,0-0.4,0-0.5c-0.1-0.1-0.3-0.2-0.4-0.2c0.1,0,0.2-0.1,0.3-0.1c0.2,0.2,0.3,0.4,0.4,0.6
		C33.8,36.3,33.6,36.4,33.6,36.5C33.5,36.5,33.6,36.5,33.6,36.5z"/>
	<path class="st0" d="M33.6,35.3c0.4,0.1,0.4,0.7,0.8,0.5c-0.2,0.2-0.3,0.2-0.5,0C33.8,35.7,33.7,35.5,33.6,35.3z"/>
	<rect x="29" y="34.5" class="st0" width="10.5" height="3.3"/>
</g>
<g>
	<path class="st0" d="M47.5,10c1.8-3,4.2-5.5,7.2-7.3C57.8,0.9,61,0,64.6,0c3.5,0,6.8,0.9,9.8,2.7c3,1.8,5.4,4.2,7.2,7.3
		c1.8,3,2.7,6.3,2.7,9.8c0,3.6-0.9,6.9-2.7,9.9c-1.8,3-4.2,5.4-7.2,7.2c-3,1.8-6.3,2.7-9.8,2.7c-3.6,0-6.9-0.9-9.9-2.7
		c-3-1.8-5.4-4.2-7.2-7.2c-1.8-3-2.7-6.3-2.7-9.9C44.9,16.3,45.8,13,47.5,10z M54.4,26c1.1,1.9,2.5,3.4,4.4,4.5
		c1.8,1.1,3.9,1.7,6.1,1.7c2.2,0,4.1-0.6,5.9-1.7c1.8-1.1,3.2-2.6,4.2-4.5c1-1.9,1.5-3.9,1.5-6.2c0-2.3-0.5-4.4-1.6-6.3
		c-1.1-1.9-2.5-3.4-4.3-4.5c-1.8-1.1-3.8-1.7-6-1.7c-2.2,0-4.2,0.6-6,1.7c-1.8,1.1-3.2,2.6-4.3,4.5c-1.1,1.9-1.6,4-1.6,6.3
		C52.8,22,53.3,24.1,54.4,26z"/>
	<path class="st0" d="M99.6,0.4v31.3h18.2v7.4H92V0.4H99.6z"/>
	<path class="st0" d="M133.3,0.4v31.3h18.2v7.4h-25.8V0.4H133.3z"/>
	<path class="st0" d="M158.5,10c1.8-3,4.2-5.5,7.2-7.3c3-1.8,6.3-2.7,9.8-2.7c3.5,0,6.8,0.9,9.8,2.7c3,1.8,5.4,4.2,7.2,7.3
		c1.8,3,2.7,6.3,2.7,9.8c0,3.6-0.9,6.9-2.7,9.9c-1.8,3-4.2,5.4-7.2,7.2c-3,1.8-6.3,2.7-9.8,2.7c-3.6,0-6.9-0.9-9.9-2.7
		c-3-1.8-5.4-4.2-7.2-7.2c-1.8-3-2.7-6.3-2.7-9.9C155.9,16.3,156.8,13,158.5,10z M165.4,26c1.1,1.9,2.5,3.4,4.4,4.5
		c1.8,1.1,3.9,1.7,6.1,1.7c2.2,0,4.1-0.6,5.9-1.7c1.8-1.1,3.2-2.6,4.2-4.5c1-1.9,1.5-3.9,1.5-6.2c0-2.3-0.5-4.4-1.6-6.3
		c-1.1-1.9-2.5-3.4-4.3-4.5c-1.8-1.1-3.8-1.7-6-1.7c-2.2,0-4.2,0.6-6,1.7c-1.8,1.1-3.2,2.6-4.3,4.5c-1.1,1.9-1.6,4-1.6,6.3
		C163.8,22,164.3,24.1,165.4,26z"/>
</g>
</svg>
