<?xml version="1.0" encoding="utf-8"?>
<!-- Generator: Adobe Illustrator 21.1.0, SVG Export Plug-In . SVG Version: 6.00 Build 0)  -->
<svg version="1.1" id="Layer_1" xmlns="http://www.w3.org/2000/svg" xmlns:xlink="http://www.w3.org/1999/xlink" x="0px" y="0px"
	 viewBox="0 0 42.6 36.3" style="enable-background:new 0 0 42.6 36.3;" xml:space="preserve">
<style type="text/css">
	.st0{fill:#FFFFFF;}
</style>
<g>
	<path class="st0" d="M29.7,30.5c-0.2,0-0.3,0.1-0.4,0.1c-1.2,0-2.4,0-3.6,0c-0.3,0-0.5-0.1-0.7-0.3c-0.7-0.8-1.3-1.6-2-2.4
		c-0.6-0.8-1.3-1.6-1.9-2.4c-0.5-0.6-1.1-1.3-1.6-1.9c-0.8-1-1.6-2-2.4-3c-0.6-0.8-1.3-1.5-1.9-2.3c-0.7-0.9-1.5-1.8-2.2-2.7
		c-0.9-1.1-1.8-2.1-2.7-3.2c-0.8-1-1.6-2-2.4-3C7.2,8.6,6.5,7.9,5.9,7.2C5.2,6.3,4.5,5.4,3.7,4.5c-1-1.2-2-2.4-3-3.5
		C0.5,0.6,0.3,0.3,0,0c0.2,0,0.3,0,0.4,0c6.7,0,13.5,0,20.2,0c0.3,0,0.5,0,0.7,0.4c0.3,0.5,0.7,0.8,1,1.3c0.5,0.6,1,1.2,1.5,1.8
		c0.5,0.6,1,1.2,1.5,1.8c0.1,0.2,0.2,0.2,0.3,0c0.6-0.7,1.2-1.5,1.8-2.2c0.5-0.6,1-1.2,1.4-1.7c0.3-0.4,0.7-0.8,1-1.2
		C30,0.1,30.1,0,30.2,0c4.1,0,8.2,0,12.3,0c0,0,0,0,0,0c-4.3,5.2-8.7,10.4-13,15.7c-0.4-0.4-0.7-0.9-1.1-1.3c-0.3-0.4-0.7-0.8-1-1.2
		c0-0.1-0.1-0.2,0-0.3c0.7-0.9,1.5-1.7,2.2-2.6c0.6-0.7,1.2-1.5,1.8-2.2c0.6-0.7,1.2-1.5,1.8-2.2c0.7-0.8,1.4-1.6,2.1-2.5
		c-0.1,0-0.2,0-0.3,0c-1.1,0-2.1,0-3.2,0c-0.1,0-0.3,0.1-0.4,0.2c-0.8,1-1.7,2-2.5,2.9c-0.7,0.8-1.3,1.6-2,2.4
		c-0.5,0.6-1,1.2-1.5,1.8c-0.2,0.2-0.3,0-0.4-0.1c-0.4-0.5-0.9-1.1-1.3-1.6c-0.9-1.2-1.9-2.3-2.8-3.5c-0.5-0.6-1-1.2-1.5-1.9
		c-0.2-0.2-0.3-0.3-0.6-0.3c-3.8,0-7.5,0-11.3,0c-0.1,0-0.2,0-0.4,0C14.7,12.4,22.2,21.4,29.7,30.5z"/>
	<path class="st0" d="M17.2,30.8c-0.5,0.7-1.1,1.3-1.6,1.9c-0.6,0.7-1.1,1.4-1.7,2c-0.4,0.5-0.8,0.9-1.2,1.4
		c-0.1,0.1-0.2,0.2-0.3,0.2c-4,0-8,0-12.1,0c-0.1,0-0.2,0-0.3,0C4.4,31,8.7,25.7,13.1,20.4c0.2,0.2,0.4,0.4,0.6,0.7
		c0.3,0.4,0.7,0.8,1,1.2c0.2,0.2,0.3,0.4,0.5,0.6c0.1,0.1,0.1,0.3,0,0.4c-0.6,0.7-1.2,1.4-1.8,2.1c-0.6,0.7-1.2,1.5-1.8,2.2
		c-0.8,0.9-1.6,1.8-2.3,2.8c-0.5,0.6-0.9,1.2-1.4,1.8c-0.2,0.2-0.4,0.5-0.7,0.8c1.2,0,2.3,0,3.4,0c0.3,0,0.4-0.1,0.5-0.3
		c0.7-0.8,1.3-1.6,2-2.5c0.8-0.9,1.5-1.8,2.3-2.7c0.6-0.7,1.1-1.4,1.7-2.1c0.2,0.2,0.3,0.3,0.4,0.4c0.6,0.7,1.1,1.4,1.6,2.1
		c0.8,1,1.6,2.1,2.4,3.1c0.5,0.6,1,1.2,1.4,1.8c0.1,0.2,0.3,0.2,0.5,0.2c3.6,0,7.1,0,10.7,0c0.1,0,0.3,0,0.4,0
		c-0.1,0.1-0.2,0.2-0.2,0.2c0,0,0,0,0,0c0.1,0,0.2-0.1,0.3-0.2c0.1,0.3,0.1,0.6,0.2,1c0.2-0.1,0.3-0.2,0.5-0.3c0,0,0,0,0-0.1
		c-0.1,0.1-0.2,0.1-0.4,0.2c0-0.3-0.1-0.6-0.1-0.9c0.1,0,0.2,0,0.4-0.1c-7.4-9-14.9-18-22.3-26.9c0,0,0-0.1,0.1-0.1
		c0.3,0,0.5,0,0.8,0c1,0,2.1,0,3.1,0c0.3,0,0.5,0.1,0.6,0.3C18.3,7,19,7.7,19.6,8.5c0.7,0.8,1.4,1.7,2.1,2.5c0.7,0.8,1.3,1.6,2,2.4
		c0.7,0.9,1.4,1.7,2.1,2.6c0.5,0.6,1,1.2,1.5,1.8c0.6,0.8,1.3,1.5,1.9,2.3c1,1.2,2,2.5,3,3.7c1,1.2,2,2.3,2.9,3.5
		c0.8,0.9,1.5,1.8,2.2,2.8c0.8,1,1.7,2.1,2.5,3.1c0.8,1,1.7,2,2.5,3c0,0,0.1,0.1,0.2,0.1c-0.2,0-0.3,0-0.3,0c-6.8,0-13.7,0-20.5,0
		c-0.1,0-0.3-0.1-0.4-0.2c-0.9-1.1-1.8-2.3-2.7-3.4C18.2,32.1,17.7,31.4,17.2,30.8z M33.6,34.9c-0.3,0.1-0.4-0.1-0.5-0.3
		c-0.1-0.2-0.3-0.3-0.4-0.5c0,0-0.1,0-0.1,0.1c0.2,0.3,0.5,0.7,0.7,1c-0.1-0.1-0.1-0.1-0.2-0.2C33.2,35,33.4,35,33.6,34.9
		c0.1-0.1,0.2-0.2,0.2-0.2c-0.1-0.2-0.2-0.4-0.4-0.6c0,0-0.2,0-0.3,0.1c0.2,0.1,0.3,0.1,0.4,0.2C33.6,34.6,33.5,34.8,33.6,34.9z
		 M32.3,35.9C32.4,35.9,32.4,35.9,32.3,35.9c0-0.2-0.1-0.3-0.2-0.4c-0.1-0.1-0.3-0.2-0.4-0.2c-0.1,0-0.3,0.2-0.4,0.3
		c0,0,0.1,0,0.1,0.1c0,0,0-0.1,0.1-0.1c0.2-0.3,0.2-0.3,0.4,0C32,35.7,32.2,35.8,32.3,35.9z M33.6,33.8c0.1,0.2,0.2,0.4,0.4,0.5
		c0.2,0.2,0.3,0.2,0.5,0C33.9,34.5,34,33.9,33.6,33.8z M32.7,35.6c0,0,0.1,0,0.1-0.1c-0.2-0.2-0.3-0.5-0.5-0.7c0,0-0.1,0.1-0.1,0.1
		C32.3,35.1,32.5,35.4,32.7,35.6z"/>
	<path class="st0" d="M33.5,34.9c-0.1,0-0.3,0.1-0.4,0.1c0.1,0.1,0.1,0.1,0.2,0.2c-0.2-0.3-0.5-0.7-0.7-1c0,0,0.1,0,0.1-0.1
		c0.1,0.2,0.3,0.3,0.4,0.5C33.1,34.9,33.3,35,33.5,34.9L33.5,34.9z"/>
	<path class="st0" d="M33.6,34.9c0-0.2,0-0.4,0-0.5c-0.1-0.1-0.3-0.2-0.4-0.2c0.1,0,0.2-0.1,0.3-0.1c0.2,0.2,0.3,0.4,0.4,0.6
		C33.8,34.7,33.6,34.8,33.6,34.9C33.5,34.9,33.6,34.9,33.6,34.9z"/>
	<path class="st0" d="M33.6,33.8c0.4,0.1,0.4,0.7,0.8,0.5c-0.2,0.2-0.3,0.2-0.5,0C33.8,34.2,33.7,34,33.6,33.8z"/>
	<rect x="29" y="32.9" class="st0" width="10.5" height="3.3"/>
</g>
</svg>
